<svg xmlns="http://www.w3.org/2000/svg" viewBox="0 0 500 500">
  <path style="fill: rgb(125, 219, 250);" d="M 63.766 367.644 C 153.132 248.188 328.948 302.833 450.666 341.573 C 510.269 217.348 437.283 36.784 253.07 31.113 C 28.762 35.563 -8.66 269.554 63.766 367.644 Z" transform="matrix(1, 0, 0, 1, 5.684341886080802e-14, 0)"/>
  <path style="fill: rgb(42, 229, 134);" d="M 62.718 366.81 L 64.078 366.709 C 89.493 335.412 191.759 257.299 254.189 291.707 C 387.611 332.052 371.329 244.218 450.417 342.464 C 353.196 522.116 139.506 490.986 64.078 366.709 L 62.718 366.81 Z" transform="matrix(1, 0, 0, 1, 5.684341886080802e-14, 0)"/>
  <path style="fill: rgb(255, 255, 255);" d="M 90.071 334.82 C 122.45 274.7 147.127 227.799 160.384 140.756 C 232.947 203.214 266.698 194.596 307.761 135.131 C 301.105 130.139 363.668 264.812 395.511 288.694 C 373.947 331.11 299.659 320.436 250.385 289.257 C 183.924 272.354 130.643 298.857 90.071 334.82 Z" transform="matrix(1, 0, 0, 1, 5.684341886080802e-14, 0)"/>
  <path style="" d="M 496.019 366.812 C 391.868 305.157 340.412 198.857 310.288 108.413 C 251.313 221.632 202.143 169.034 150.828 108.628 C 150.462 246.145 83.056 332.259 64.865 365.364 C 147.026 291.64 211.941 284.44 250.604 300.572 C 284.298 314.631 420.135 387.858 419.938 197.455 C 401.153 281.705 387.245 325.161 256.164 281.869 C 217.947 269.502 162.687 272.622 106.038 319.78 C 128.137 279.917 152.521 222.515 164.673 154.49 C 189.06 170.133 233.482 249.262 306.206 149.941 C 331.051 246.767 419.119 342.927 496.019 366.812 Z" transform="matrix(1, 0, 0, 1, 5.684341886080802e-14, 0)"/>
  <circle cx="250.089" cy="249.889" r="219.19" style="stroke: rgb(0, 0, 0); fill: none; stroke-width: 6px;" transform="matrix(1, 0, 0, 1, 5.684341886080802e-14, 0)"/>
</svg>